<?xml version="1.0" encoding="UTF-8"?>
<svg xmlns="http://www.w3.org/2000/svg" width="90" height="90">
<path d="m 18.678658,86.713382 c -0.152867,-0.0569 -0.359093,-0.162907 -0.45828,-0.235569 -0.265074,-0.194185 -0.621858,-0.753766 -0.745266,-1.168892 -0.165558,-0.556901 -0.262764,-1.629538 -0.215008,-2.372544 l 0.04306,-0.669794 -0.362515,-0.28202 C 15.955542,81.218199 14.328551,79.446621 13.357042,78.082482 9.7010593,72.948977 7.9012277,65.685103 8.3468826,57.862161 8.8287237,49.40398 11.551903,40.795202 16.289025,32.754677 c 0.325556,-0.55258 0.614764,-1.004136 0.642683,-1.003456 0.02792,7.05e-4 0.479079,0.33731 1.002576,0.748069 8.425437,6.61096 18.545618,13.114505 29.11843,18.712417 1.615089,0.85513 6.740326,3.402522 8.354803,4.152581 2.99666,1.392197 6.45932,2.893709 9.20086,3.989761 0.95005,0.379825 1.755161,0.714961 1.789136,0.744747 0.0782,0.06855 -0.446851,1.048492 -1.52673,2.849507 -7.833981,13.065466 -19.711713,22.001214 -31.303207,23.549744 -1.921009,0.25663 -4.502988,0.270964 -6.189188,0.03436 -1.445332,-0.2028 -3.22335,-0.627921 -4.257352,-1.017918 l -0.488874,-0.184391 -0.471589,0.313584 c -1.394459,0.927249 -2.747716,1.342994 -3.481913,1.069704 z M 69.64946,57.270151 C 69.57191,57.235231 68.855575,56.953081 68.057615,56.643144 51.176938,50.08648 33.242456,39.778021 18.846228,28.357209 l -1.308953,-1.038419 -0.08316,-0.55171 c -0.285197,-1.891847 -0.295262,-4.53895 -0.02328,-6.121581 0.612132,-3.561909 2.065768,-6.399436 4.553335,-8.888208 1.767792,-1.7686476 3.747175,-3.0652407 6.234629,-4.0839855 8.249409,-3.3785703 19.721446,-2.2374344 30.200525,3.0040775 0.609498,0.304863 1.370314,0.699296 1.690704,0.876516 0.320391,0.17722 0.592816,0.291354 0.605391,0.253631 0.01257,-0.03773 0.292408,-0.474774 0.621859,-0.971225 1.498497,-2.2580989 3.485041,-4.2816629 5.491998,-5.5943442 0.712605,-0.4660912 2.224891,-1.2006177 2.961197,-1.4382726 1.259907,-0.4066564 2.69246,-0.6370081 3.699555,-0.5948806 l 0.526846,0.022038 0.08803,0.5270409 c 0.257039,1.5389316 0.931704,2.9054568 2.141607,4.3377815 0.262045,0.3102205 0.573253,0.656142 0.691567,0.7687143 0.245948,0.2340072 0.228787,0.3241081 -0.06172,0.3241081 -0.364509,0 -2.268395,0.3507683 -3.313881,0.6105437 -3.15026,0.7827539 -6.161594,2.1265469 -8.421712,3.7581499 -0.318835,0.23017 -0.614575,0.460513 -0.657199,0.51187 -0.06099,0.07349 0.15797,0.26134 1.028352,0.882196 6.462566,4.609835 11.534385,10.65288 14.173742,16.887945 3.184152,7.52205 2.611979,14.688033 -1.588837,19.898865 -1.780632,2.208753 -4.396721,4.11178 -7.262155,5.282727 -0.810192,0.331082 -0.942067,0.358829 -1.185201,0.249364 z"/>
</svg>